<svg width="31" height="1024" viewBox="0 0 31 1024" fill="none" xmlns="http://www.w3.org/2000/svg">
<g filter="url(#filter0_dd_64_439)">
<g clip-path="url(#clip0_64_439)">
<path d="M12 -7H33V1029H12V-7Z" fill="#C9A84C"/>
<rect width="12" height="2" transform="translate(19 18)" fill="#0F172A" fill-opacity="0.8"/>
<path d="M17.7558 12.8852C17.7558 13.6287 17.6311 14.1817 17.3818 14.5444C17.1324 14.9071 16.7698 15.0884 16.2938 15.0884C15.8178 15.0884 15.4551 14.9071 15.2058 14.5444C14.9564 14.1817 14.8318 13.6287 14.8318 12.8852C14.8318 12.1508 14.9587 11.6023 15.2126 11.2396C15.4664 10.8769 15.8268 10.6956 16.2938 10.6956C16.7698 10.6956 17.1324 10.8769 17.3818 11.2396C17.6311 11.5977 17.7558 12.1463 17.7558 12.8852ZM17.001 12.8852C17.001 12.4047 16.9398 12.0397 16.8174 11.7904C16.6995 11.5365 16.525 11.4096 16.2938 11.4096C16.0671 11.4096 15.8926 11.5365 15.7702 11.7904C15.6478 12.0397 15.5866 12.4047 15.5866 12.8852C15.5866 13.3703 15.6478 13.7397 15.7702 13.9936C15.8926 14.2429 16.0671 14.3676 16.2938 14.3676C16.525 14.3676 16.6995 14.2429 16.8174 13.9936C16.9398 13.7397 17.001 13.3703 17.001 12.8852ZM16.6746 12.8172C16.6746 12.9396 16.6383 13.0461 16.5658 13.1368C16.4978 13.2229 16.4094 13.266 16.3006 13.266C16.1827 13.266 16.0898 13.2229 16.0218 13.1368C15.9538 13.0461 15.9198 12.9396 15.9198 12.8172C15.9198 12.6948 15.9538 12.5883 16.0218 12.4976C16.0898 12.4069 16.1827 12.3616 16.3006 12.3616C16.4094 12.3616 16.4978 12.4069 16.5658 12.4976C16.6383 12.5883 16.6746 12.6948 16.6746 12.8172Z" fill="#0F172A" fill-opacity="0.7"/>
<rect width="8" height="1" transform="translate(23 38.5)" fill="#0F172A" fill-opacity="0.8"/>
<rect width="6" height="1" transform="translate(25 58.5)" fill="#0F172A" fill-opacity="0.8"/>
<rect width="8" height="1" transform="translate(23 78.5)" fill="#0F172A" fill-opacity="0.8"/>
<rect width="6" height="1" transform="translate(25 98.5)" fill="#0F172A" fill-opacity="0.8"/>
<rect width="12" height="2" transform="translate(19 118)" fill="#0F172A" fill-opacity="0.8"/>
<path d="M16.7766 113.762C16.7766 113.645 16.7562 113.538 16.7154 113.443C16.6791 113.343 16.602 113.259 16.4842 113.191C16.3708 113.119 16.2076 113.064 15.9946 113.028C15.7815 112.987 15.5027 112.967 15.1582 112.967C15.2035 112.586 15.2398 112.214 15.267 111.852C15.2942 111.484 15.3146 111.131 15.3282 110.791H17.477V111.484H16.0286C16.0195 111.629 16.0082 111.781 15.9946 111.94C15.981 112.099 15.9696 112.228 15.9606 112.328C16.5227 112.364 16.942 112.5 17.2186 112.736C17.4951 112.971 17.6334 113.302 17.6334 113.728C17.6334 113.923 17.5994 114.105 17.5314 114.272C17.4634 114.436 17.3591 114.578 17.2186 114.701C17.078 114.823 16.9035 114.918 16.695 114.986C16.4864 115.054 16.2439 115.088 15.9674 115.088C15.8586 115.088 15.7475 115.082 15.6342 115.068C15.5208 115.054 15.412 115.036 15.3078 115.014C15.2035 114.995 15.1083 114.973 15.0222 114.946C14.9406 114.918 14.8771 114.893 14.8318 114.871L15.0018 114.177C15.1015 114.227 15.2284 114.272 15.3826 114.313C15.5367 114.354 15.7294 114.374 15.9606 114.374C16.1238 114.374 16.2575 114.356 16.3618 114.32C16.4706 114.284 16.5544 114.238 16.6134 114.184C16.6768 114.125 16.7199 114.059 16.7426 113.987C16.7652 113.914 16.7766 113.839 16.7766 113.762Z" fill="#0F172A" fill-opacity="0.7"/>
<rect width="6" height="1" transform="translate(25 138.5)" fill="#0F172A" fill-opacity="0.8"/>
<rect width="8" height="1" transform="translate(23 158.5)" fill="#0F172A" fill-opacity="0.8"/>
<rect width="6" height="1" transform="translate(25 178.5)" fill="#0F172A" fill-opacity="0.8"/>
<rect width="8" height="1" transform="translate(23 198.5)" fill="#0F172A" fill-opacity="0.8"/>
<rect width="12" height="2" transform="translate(19 218)" fill="#0F172A" fill-opacity="0.8"/>
<path d="M11.6515 214.306V211.954C11.5246 212.044 11.3795 212.126 11.2163 212.198C11.0531 212.266 10.9149 212.321 10.8015 212.362L10.5295 211.668C10.6383 211.627 10.7562 211.575 10.8831 211.512C11.0101 211.448 11.137 211.378 11.2639 211.301C11.3909 211.224 11.511 211.142 11.6243 211.056C11.7377 210.97 11.8351 210.881 11.9167 210.791H12.4879V214.306H13.3243V215H10.7675V214.306H11.6515ZM16.7651 212.885C16.7651 213.629 16.6405 214.182 16.3911 214.544C16.1418 214.907 15.7791 215.088 15.3031 215.088C14.8271 215.088 14.4645 214.907 14.2151 214.544C13.9658 214.182 13.8411 213.629 13.8411 212.885C13.8411 212.151 13.9681 211.602 14.2219 211.24C14.4758 210.877 14.8362 210.696 15.3031 210.696C15.7791 210.696 16.1418 210.877 16.3911 211.24C16.6405 211.598 16.7651 212.146 16.7651 212.885ZM16.0103 212.885C16.0103 212.405 15.9491 212.04 15.8267 211.79C15.7089 211.537 15.5343 211.41 15.3031 211.41C15.0765 211.41 14.9019 211.537 14.7795 211.79C14.6571 212.04 14.5959 212.405 14.5959 212.885C14.5959 213.37 14.6571 213.74 14.7795 213.994C14.9019 214.243 15.0765 214.368 15.3031 214.368C15.5343 214.368 15.7089 214.243 15.8267 213.994C15.9491 213.74 16.0103 213.37 16.0103 212.885ZM15.6839 212.817C15.6839 212.94 15.6477 213.046 15.5751 213.137C15.5071 213.223 15.4187 213.266 15.3099 213.266C15.1921 213.266 15.0991 213.223 15.0311 213.137C14.9631 213.046 14.9291 212.94 14.9291 212.817C14.9291 212.695 14.9631 212.588 15.0311 212.498C15.0991 212.407 15.1921 212.362 15.3099 212.362C15.4187 212.362 15.5071 212.407 15.5751 212.498C15.6477 212.588 15.6839 212.695 15.6839 212.817Z" fill="#0F172A" fill-opacity="0.7"/>
<rect width="8" height="1" transform="translate(23 238.5)" fill="#0F172A" fill-opacity="0.8"/>
<rect width="6" height="1" transform="translate(25 258.5)" fill="#0F172A" fill-opacity="0.8"/>
<rect width="8" height="1" transform="translate(23 278.5)" fill="#0F172A" fill-opacity="0.8"/>
<rect width="6" height="1" transform="translate(25 298.5)" fill="#0F172A" fill-opacity="0.8"/>
<rect width="12" height="2" transform="translate(19 318)" fill="#0F172A" fill-opacity="0.8"/>
<path d="M11.6515 314.306V311.954C11.5246 312.044 11.3795 312.126 11.2163 312.198C11.0531 312.266 10.9149 312.321 10.8015 312.362L10.5295 311.668C10.6383 311.627 10.7562 311.575 10.8831 311.512C11.0101 311.448 11.137 311.378 11.2639 311.301C11.3909 311.224 11.511 311.142 11.6243 311.056C11.7377 310.97 11.8351 310.881 11.9167 310.791H12.4879V314.306H13.3243V315H10.7675V314.306H11.6515ZM15.7859 313.762C15.7859 313.645 15.7655 313.538 15.7247 313.443C15.6885 313.343 15.6114 313.259 15.4935 313.191C15.3802 313.119 15.217 313.064 15.0039 313.028C14.7909 312.987 14.5121 312.967 14.1675 312.967C14.2129 312.586 14.2491 312.214 14.2763 311.852C14.3035 311.484 14.3239 311.131 14.3375 310.791H16.4863V311.484H15.0379C15.0289 311.629 15.0175 311.781 15.0039 311.94C14.9903 312.099 14.979 312.228 14.9699 312.328C15.5321 312.364 15.9514 312.5 16.2279 312.736C16.5045 312.971 16.6427 313.302 16.6427 313.728C16.6427 313.923 16.6087 314.105 16.5407 314.272C16.4727 314.436 16.3685 314.578 16.2279 314.701C16.0874 314.823 15.9129 314.918 15.7043 314.986C15.4958 315.054 15.2533 315.088 14.9767 315.088C14.8679 315.088 14.7569 315.082 14.6435 315.068C14.5302 315.054 14.4214 315.036 14.3171 315.014C14.2129 314.995 14.1177 314.973 14.0315 314.946C13.9499 314.918 13.8865 314.893 13.8411 314.871L14.0111 314.177C14.1109 314.227 14.2378 314.272 14.3919 314.313C14.5461 314.354 14.7387 314.374 14.9699 314.374C15.1331 314.374 15.2669 314.356 15.3711 314.32C15.4799 314.284 15.5638 314.238 15.6227 314.184C15.6862 314.125 15.7293 314.059 15.7519 313.987C15.7746 313.914 15.7859 313.839 15.7859 313.762Z" fill="#0F172A" fill-opacity="0.7"/>
<rect width="6" height="1" transform="translate(25 338.5)" fill="#0F172A" fill-opacity="0.8"/>
<rect width="8" height="1" transform="translate(23 358.5)" fill="#0F172A" fill-opacity="0.8"/>
<rect width="6" height="1" transform="translate(25 378.5)" fill="#0F172A" fill-opacity="0.8"/>
<rect width="8" height="1" transform="translate(23 398.5)" fill="#0F172A" fill-opacity="0.8"/>
<rect width="12" height="2" transform="translate(19 418)" fill="#0F172A" fill-opacity="0.8"/>
<path d="M13.1543 411.899C13.1543 412.044 13.1271 412.185 13.0727 412.321C13.0183 412.452 12.9458 412.581 12.8551 412.708C12.7645 412.835 12.6625 412.958 12.5491 413.076C12.4358 413.193 12.3202 413.307 12.2023 413.416C12.1434 413.47 12.0754 413.536 11.9983 413.613C11.9213 413.685 11.8487 413.762 11.7807 413.844C11.7127 413.921 11.6538 414 11.6039 414.082C11.5586 414.164 11.5359 414.238 11.5359 414.306H13.3447V415H10.5975C10.5839 414.955 10.5771 414.898 10.5771 414.83C10.5817 414.762 10.5839 414.714 10.5839 414.687C10.5839 414.461 10.6247 414.252 10.7063 414.062C10.7925 413.871 10.899 413.697 11.0259 413.538C11.1574 413.375 11.2957 413.225 11.4407 413.089C11.5903 412.949 11.7286 412.815 11.8555 412.688C11.987 412.561 12.0935 412.439 12.1751 412.321C12.2613 412.203 12.3043 412.083 12.3043 411.96C12.3043 411.788 12.2522 411.657 12.1479 411.566C12.0437 411.471 11.9122 411.423 11.7535 411.423C11.6221 411.423 11.4838 411.455 11.3387 411.518C11.1937 411.582 11.0509 411.688 10.9103 411.838L10.4955 411.253C10.6769 411.063 10.8854 410.922 11.1211 410.832C11.3614 410.741 11.5994 410.696 11.8351 410.696C12.0074 410.696 12.1729 410.721 12.3315 410.77C12.4902 410.82 12.6307 410.895 12.7531 410.995C12.8755 411.095 12.973 411.221 13.0455 411.376C13.1181 411.525 13.1543 411.7 13.1543 411.899ZM16.7651 412.885C16.7651 413.629 16.6405 414.182 16.3911 414.544C16.1418 414.907 15.7791 415.088 15.3031 415.088C14.8271 415.088 14.4645 414.907 14.2151 414.544C13.9658 414.182 13.8411 413.629 13.8411 412.885C13.8411 412.151 13.9681 411.602 14.2219 411.24C14.4758 410.877 14.8362 410.696 15.3031 410.696C15.7791 410.696 16.1418 410.877 16.3911 411.24C16.6405 411.598 16.7651 412.146 16.7651 412.885ZM16.0103 412.885C16.0103 412.405 15.9491 412.04 15.8267 411.79C15.7089 411.537 15.5343 411.41 15.3031 411.41C15.0765 411.41 14.9019 411.537 14.7795 411.79C14.6571 412.04 14.5959 412.405 14.5959 412.885C14.5959 413.37 14.6571 413.74 14.7795 413.994C14.9019 414.243 15.0765 414.368 15.3031 414.368C15.5343 414.368 15.7089 414.243 15.8267 413.994C15.9491 413.74 16.0103 413.37 16.0103 412.885ZM15.6839 412.817C15.6839 412.94 15.6477 413.046 15.5751 413.137C15.5071 413.223 15.4187 413.266 15.3099 413.266C15.1921 413.266 15.0991 413.223 15.0311 413.137C14.9631 413.046 14.9291 412.94 14.9291 412.817C14.9291 412.695 14.9631 412.588 15.0311 412.498C15.0991 412.407 15.1921 412.362 15.3099 412.362C15.4187 412.362 15.5071 412.407 15.5751 412.498C15.6477 412.588 15.6839 412.695 15.6839 412.817Z" fill="#0F172A" fill-opacity="0.7"/>
<rect width="8" height="1" transform="translate(23 438.5)" fill="#0F172A" fill-opacity="0.8"/>
<rect width="6" height="1" transform="translate(25 458.5)" fill="#0F172A" fill-opacity="0.8"/>
<rect width="8" height="1" transform="translate(23 478.5)" fill="#0F172A" fill-opacity="0.8"/>
<rect width="6" height="1" transform="translate(25 498.5)" fill="#0F172A" fill-opacity="0.8"/>
<rect width="12" height="2" transform="translate(19 518)" fill="#0F172A" fill-opacity="0.8"/>
<path d="M13.1543 511.899C13.1543 512.044 13.1271 512.185 13.0727 512.321C13.0183 512.452 12.9458 512.581 12.8551 512.708C12.7645 512.835 12.6625 512.958 12.5491 513.076C12.4358 513.193 12.3202 513.307 12.2023 513.416C12.1434 513.47 12.0754 513.536 11.9983 513.613C11.9213 513.685 11.8487 513.762 11.7807 513.844C11.7127 513.921 11.6538 514 11.6039 514.082C11.5586 514.164 11.5359 514.238 11.5359 514.306H13.3447V515H10.5975C10.5839 514.955 10.5771 514.898 10.5771 514.83C10.5817 514.762 10.5839 514.714 10.5839 514.687C10.5839 514.461 10.6247 514.252 10.7063 514.062C10.7925 513.871 10.899 513.697 11.0259 513.538C11.1574 513.375 11.2957 513.225 11.4407 513.089C11.5903 512.949 11.7286 512.815 11.8555 512.688C11.987 512.561 12.0935 512.439 12.1751 512.321C12.2613 512.203 12.3043 512.083 12.3043 511.96C12.3043 511.788 12.2522 511.657 12.1479 511.566C12.0437 511.471 11.9122 511.423 11.7535 511.423C11.6221 511.423 11.4838 511.455 11.3387 511.518C11.1937 511.582 11.0509 511.688 10.9103 511.838L10.4955 511.253C10.6769 511.063 10.8854 510.922 11.1211 510.832C11.3614 510.741 11.5994 510.696 11.8351 510.696C12.0074 510.696 12.1729 510.721 12.3315 510.77C12.4902 510.82 12.6307 510.895 12.7531 510.995C12.8755 511.095 12.973 511.221 13.0455 511.376C13.1181 511.525 13.1543 511.7 13.1543 511.899ZM15.7859 513.762C15.7859 513.645 15.7655 513.538 15.7247 513.443C15.6885 513.343 15.6114 513.259 15.4935 513.191C15.3802 513.119 15.217 513.064 15.0039 513.028C14.7909 512.987 14.5121 512.967 14.1675 512.967C14.2129 512.586 14.2491 512.214 14.2763 511.852C14.3035 511.484 14.3239 511.131 14.3375 510.791H16.4863V511.484H15.0379C15.0289 511.629 15.0175 511.781 15.0039 511.94C14.9903 512.099 14.979 512.228 14.9699 512.328C15.5321 512.364 15.9514 512.5 16.2279 512.736C16.5045 512.971 16.6427 513.302 16.6427 513.728C16.6427 513.923 16.6087 514.105 16.5407 514.272C16.4727 514.436 16.3685 514.578 16.2279 514.701C16.0874 514.823 15.9129 514.918 15.7043 514.986C15.4958 515.054 15.2533 515.088 14.9767 515.088C14.8679 515.088 14.7569 515.082 14.6435 515.068C14.5302 515.054 14.4214 515.036 14.3171 515.014C14.2129 514.995 14.1177 514.973 14.0315 514.946C13.9499 514.918 13.8865 514.893 13.8411 514.871L14.0111 514.177C14.1109 514.227 14.2378 514.272 14.3919 514.313C14.5461 514.354 14.7387 514.374 14.9699 514.374C15.1331 514.374 15.2669 514.356 15.3711 514.32C15.4799 514.284 15.5638 514.238 15.6227 514.184C15.6862 514.125 15.7293 514.059 15.7519 513.987C15.7746 513.914 15.7859 513.839 15.7859 513.762Z" fill="#0F172A" fill-opacity="0.7"/>
<rect width="6" height="1" transform="translate(25 538.5)" fill="#0F172A" fill-opacity="0.8"/>
<rect width="8" height="1" transform="translate(23 558.5)" fill="#0F172A" fill-opacity="0.8"/>
<rect width="6" height="1" transform="translate(25 578.5)" fill="#0F172A" fill-opacity="0.8"/>
<rect width="8" height="1" transform="translate(23 598.5)" fill="#0F172A" fill-opacity="0.8"/>
<rect width="12" height="2" transform="translate(19 618)" fill="#0F172A" fill-opacity="0.8"/>
<path d="M11.6515 615.088C11.5473 615.088 11.4362 615.079 11.3183 615.061C11.205 615.048 11.0939 615.029 10.9851 615.007C10.8809 614.984 10.7834 614.959 10.6927 614.932C10.6021 614.905 10.5318 614.88 10.4819 614.857L10.6451 614.157C10.7494 614.202 10.8831 614.25 11.0463 614.3C11.2141 614.349 11.4135 614.374 11.6447 614.374C11.9303 614.374 12.1298 614.313 12.2431 614.191C12.361 614.068 12.4199 613.917 12.4199 613.735C12.4199 613.513 12.3315 613.359 12.1547 613.273C11.9779 613.182 11.7535 613.137 11.4815 613.137H11.2231V612.443H11.5359C11.6221 612.443 11.7082 612.434 11.7943 612.416C11.8805 612.398 11.9575 612.368 12.0255 612.328C12.0935 612.287 12.1479 612.232 12.1887 612.164C12.2341 612.096 12.2567 612.01 12.2567 611.906C12.2567 611.752 12.2091 611.632 12.1139 611.546C12.0233 611.455 11.8963 611.41 11.7331 611.41C11.5745 611.41 11.4158 611.437 11.2571 611.491C11.103 611.541 10.9693 611.605 10.8559 611.682L10.5567 611.07C10.6791 610.988 10.8401 610.906 11.0395 610.825C11.2435 610.739 11.4725 610.696 11.7263 610.696C11.9621 610.696 12.1661 610.725 12.3383 610.784C12.5151 610.843 12.6602 610.927 12.7735 611.036C12.8869 611.14 12.9707 611.265 13.0251 611.41C13.0795 611.555 13.1067 611.711 13.1067 611.879C13.1067 612.047 13.0591 612.207 12.9639 612.362C12.8687 612.516 12.7418 612.634 12.5831 612.715C12.8007 612.806 12.9685 612.94 13.0863 613.116C13.2087 613.293 13.2699 613.504 13.2699 613.749C13.2699 613.944 13.2382 614.123 13.1747 614.286C13.1113 614.449 13.0138 614.592 12.8823 614.714C12.7509 614.832 12.5831 614.925 12.3791 614.993C12.1751 615.057 11.9326 615.088 11.6515 615.088ZM16.7651 612.885C16.7651 613.629 16.6405 614.182 16.3911 614.544C16.1418 614.907 15.7791 615.088 15.3031 615.088C14.8271 615.088 14.4645 614.907 14.2151 614.544C13.9658 614.182 13.8411 613.629 13.8411 612.885C13.8411 612.151 13.9681 611.602 14.2219 611.24C14.4758 610.877 14.8362 610.696 15.3031 610.696C15.7791 610.696 16.1418 610.877 16.3911 611.24C16.6405 611.598 16.7651 612.146 16.7651 612.885ZM16.0103 612.885C16.0103 612.405 15.9491 612.04 15.8267 611.79C15.7089 611.537 15.5343 611.41 15.3031 611.41C15.0765 611.41 14.9019 611.537 14.7795 611.79C14.6571 612.04 14.5959 612.405 14.5959 612.885C14.5959 613.37 14.6571 613.74 14.7795 613.994C14.9019 614.243 15.0765 614.368 15.3031 614.368C15.5343 614.368 15.7089 614.243 15.8267 613.994C15.9491 613.74 16.0103 613.37 16.0103 612.885ZM15.6839 612.817C15.6839 612.94 15.6477 613.046 15.5751 613.137C15.5071 613.223 15.4187 613.266 15.3099 613.266C15.1921 613.266 15.0991 613.223 15.0311 613.137C14.9631 613.046 14.9291 612.94 14.9291 612.817C14.9291 612.695 14.9631 612.588 15.0311 612.498C15.0991 612.407 15.1921 612.362 15.3099 612.362C15.4187 612.362 15.5071 612.407 15.5751 612.498C15.6477 612.588 15.6839 612.695 15.6839 612.817Z" fill="#0F172A" fill-opacity="0.7"/>
<rect width="8" height="1" transform="translate(23 638.5)" fill="#0F172A" fill-opacity="0.8"/>
<rect width="6" height="1" transform="translate(25 658.5)" fill="#0F172A" fill-opacity="0.8"/>
<rect width="8" height="1" transform="translate(23 678.5)" fill="#0F172A" fill-opacity="0.8"/>
<rect width="6" height="1" transform="translate(25 698.5)" fill="#0F172A" fill-opacity="0.8"/>
<rect width="12" height="2" transform="translate(19 718)" fill="#0F172A" fill-opacity="0.8"/>
<path d="M11.6515 715.088C11.5473 715.088 11.4362 715.079 11.3183 715.061C11.205 715.048 11.0939 715.029 10.9851 715.007C10.8809 714.984 10.7834 714.959 10.6927 714.932C10.6021 714.905 10.5318 714.88 10.4819 714.857L10.6451 714.157C10.7494 714.202 10.8831 714.25 11.0463 714.3C11.2141 714.349 11.4135 714.374 11.6447 714.374C11.9303 714.374 12.1298 714.313 12.2431 714.191C12.361 714.068 12.4199 713.917 12.4199 713.735C12.4199 713.513 12.3315 713.359 12.1547 713.273C11.9779 713.182 11.7535 713.137 11.4815 713.137H11.2231V712.443H11.5359C11.6221 712.443 11.7082 712.434 11.7943 712.416C11.8805 712.398 11.9575 712.368 12.0255 712.328C12.0935 712.287 12.1479 712.232 12.1887 712.164C12.2341 712.096 12.2567 712.01 12.2567 711.906C12.2567 711.752 12.2091 711.632 12.1139 711.546C12.0233 711.455 11.8963 711.41 11.7331 711.41C11.5745 711.41 11.4158 711.437 11.2571 711.491C11.103 711.541 10.9693 711.605 10.8559 711.682L10.5567 711.07C10.6791 710.988 10.8401 710.906 11.0395 710.825C11.2435 710.739 11.4725 710.696 11.7263 710.696C11.9621 710.696 12.1661 710.725 12.3383 710.784C12.5151 710.843 12.6602 710.927 12.7735 711.036C12.8869 711.14 12.9707 711.265 13.0251 711.41C13.0795 711.555 13.1067 711.711 13.1067 711.879C13.1067 712.047 13.0591 712.207 12.9639 712.362C12.8687 712.516 12.7418 712.634 12.5831 712.715C12.8007 712.806 12.9685 712.94 13.0863 713.116C13.2087 713.293 13.2699 713.504 13.2699 713.749C13.2699 713.944 13.2382 714.123 13.1747 714.286C13.1113 714.449 13.0138 714.592 12.8823 714.714C12.7509 714.832 12.5831 714.925 12.3791 714.993C12.1751 715.057 11.9326 715.088 11.6515 715.088ZM15.7859 713.762C15.7859 713.645 15.7655 713.538 15.7247 713.443C15.6885 713.343 15.6114 713.259 15.4935 713.191C15.3802 713.119 15.217 713.064 15.0039 713.028C14.7909 712.987 14.5121 712.967 14.1675 712.967C14.2129 712.586 14.2491 712.214 14.2763 711.852C14.3035 711.484 14.3239 711.131 14.3375 710.791H16.4863V711.484H15.0379C15.0289 711.629 15.0175 711.781 15.0039 711.94C14.9903 712.099 14.979 712.228 14.9699 712.328C15.5321 712.364 15.9514 712.5 16.2279 712.736C16.5045 712.971 16.6427 713.302 16.6427 713.728C16.6427 713.923 16.6087 714.105 16.5407 714.272C16.4727 714.436 16.3685 714.578 16.2279 714.701C16.0874 714.823 15.9129 714.918 15.7043 714.986C15.4958 715.054 15.2533 715.088 14.9767 715.088C14.8679 715.088 14.7569 715.082 14.6435 715.068C14.5302 715.054 14.4214 715.036 14.3171 715.014C14.2129 714.995 14.1177 714.973 14.0315 714.946C13.9499 714.918 13.8865 714.893 13.8411 714.871L14.0111 714.177C14.1109 714.227 14.2378 714.272 14.3919 714.313C14.5461 714.354 14.7387 714.374 14.9699 714.374C15.1331 714.374 15.2669 714.356 15.3711 714.32C15.4799 714.284 15.5638 714.238 15.6227 714.184C15.6862 714.125 15.7293 714.059 15.7519 713.987C15.7746 713.914 15.7859 713.839 15.7859 713.762Z" fill="#0F172A" fill-opacity="0.7"/>
<rect width="6" height="1" transform="translate(25 738.5)" fill="#0F172A" fill-opacity="0.8"/>
<rect width="8" height="1" transform="translate(23 758.5)" fill="#0F172A" fill-opacity="0.8"/>
<rect width="6" height="1" transform="translate(25 778.5)" fill="#0F172A" fill-opacity="0.8"/>
<rect width="8" height="1" transform="translate(23 798.5)" fill="#0F172A" fill-opacity="0.8"/>
<rect width="12" height="2" transform="translate(19 818)" fill="#0F172A" fill-opacity="0.8"/>
<path d="M12.1411 811.838C12.0595 811.942 11.9757 812.053 11.8895 812.171C11.8034 812.289 11.7173 812.414 11.6311 812.545C11.5495 812.672 11.4702 812.801 11.3931 812.933C11.3161 813.064 11.2481 813.193 11.1891 813.32H12.1411V811.838ZM12.9775 810.791V813.32H13.4331V814.007H12.9775V815H12.1411V814.007H10.3867V813.395C10.4729 813.218 10.5839 813.019 10.7199 812.797C10.8559 812.57 11.0055 812.339 11.1687 812.103C11.3319 811.867 11.5042 811.636 11.6855 811.41C11.8669 811.178 12.0482 810.972 12.2295 810.791H12.9775ZM16.7651 812.885C16.7651 813.629 16.6405 814.182 16.3911 814.544C16.1418 814.907 15.7791 815.088 15.3031 815.088C14.8271 815.088 14.4645 814.907 14.2151 814.544C13.9658 814.182 13.8411 813.629 13.8411 812.885C13.8411 812.151 13.9681 811.602 14.2219 811.24C14.4758 810.877 14.8362 810.696 15.3031 810.696C15.7791 810.696 16.1418 810.877 16.3911 811.24C16.6405 811.598 16.7651 812.146 16.7651 812.885ZM16.0103 812.885C16.0103 812.405 15.9491 812.04 15.8267 811.79C15.7089 811.537 15.5343 811.41 15.3031 811.41C15.0765 811.41 14.9019 811.537 14.7795 811.79C14.6571 812.04 14.5959 812.405 14.5959 812.885C14.5959 813.37 14.6571 813.74 14.7795 813.994C14.9019 814.243 15.0765 814.368 15.3031 814.368C15.5343 814.368 15.7089 814.243 15.8267 813.994C15.9491 813.74 16.0103 813.37 16.0103 812.885ZM15.6839 812.817C15.6839 812.94 15.6477 813.046 15.5751 813.137C15.5071 813.223 15.4187 813.266 15.3099 813.266C15.1921 813.266 15.0991 813.223 15.0311 813.137C14.9631 813.046 14.9291 812.94 14.9291 812.817C14.9291 812.695 14.9631 812.588 15.0311 812.498C15.0991 812.407 15.1921 812.362 15.3099 812.362C15.4187 812.362 15.5071 812.407 15.5751 812.498C15.6477 812.588 15.6839 812.695 15.6839 812.817Z" fill="#0F172A" fill-opacity="0.7"/>
<rect width="8" height="1" transform="translate(23 838.5)" fill="#0F172A" fill-opacity="0.8"/>
<rect width="6" height="1" transform="translate(25 858.5)" fill="#0F172A" fill-opacity="0.8"/>
<rect width="8" height="1" transform="translate(23 878.5)" fill="#0F172A" fill-opacity="0.8"/>
<rect width="6" height="1" transform="translate(25 898.5)" fill="#0F172A" fill-opacity="0.8"/>
<rect width="12" height="2" transform="translate(19 918)" fill="#0F172A" fill-opacity="0.8"/>
<path d="M12.1411 911.838C12.0595 911.942 11.9757 912.053 11.8895 912.171C11.8034 912.289 11.7173 912.414 11.6311 912.545C11.5495 912.672 11.4702 912.801 11.3931 912.933C11.3161 913.064 11.2481 913.193 11.1891 913.32H12.1411V911.838ZM12.9775 910.791V913.32H13.4331V914.007H12.9775V915H12.1411V914.007H10.3867V913.395C10.4729 913.218 10.5839 913.019 10.7199 912.797C10.8559 912.57 11.0055 912.339 11.1687 912.103C11.3319 911.867 11.5042 911.636 11.6855 911.41C11.8669 911.178 12.0482 910.972 12.2295 910.791H12.9775ZM15.7859 913.762C15.7859 913.645 15.7655 913.538 15.7247 913.443C15.6885 913.343 15.6114 913.259 15.4935 913.191C15.3802 913.119 15.217 913.064 15.0039 913.028C14.7909 912.987 14.5121 912.967 14.1675 912.967C14.2129 912.586 14.2491 912.214 14.2763 911.852C14.3035 911.484 14.3239 911.131 14.3375 910.791H16.4863V911.484H15.0379C15.0289 911.629 15.0175 911.781 15.0039 911.94C14.9903 912.099 14.979 912.228 14.9699 912.328C15.5321 912.364 15.9514 912.5 16.2279 912.736C16.5045 912.971 16.6427 913.302 16.6427 913.728C16.6427 913.923 16.6087 914.105 16.5407 914.272C16.4727 914.436 16.3685 914.578 16.2279 914.701C16.0874 914.823 15.9129 914.918 15.7043 914.986C15.4958 915.054 15.2533 915.088 14.9767 915.088C14.8679 915.088 14.7569 915.082 14.6435 915.068C14.5302 915.054 14.4214 915.036 14.3171 915.014C14.2129 914.995 14.1177 914.973 14.0315 914.946C13.9499 914.918 13.8865 914.893 13.8411 914.871L14.0111 914.177C14.1109 914.227 14.2378 914.272 14.3919 914.313C14.5461 914.354 14.7387 914.374 14.9699 914.374C15.1331 914.374 15.2669 914.356 15.3711 914.32C15.4799 914.284 15.5638 914.238 15.6227 914.184C15.6862 914.125 15.7293 914.059 15.7519 913.987C15.7746 913.914 15.7859 913.839 15.7859 913.762Z" fill="#0F172A" fill-opacity="0.7"/>
<rect width="6" height="1" transform="translate(25 938.5)" fill="#0F172A" fill-opacity="0.8"/>
<rect width="8" height="1" transform="translate(23 958.5)" fill="#0F172A" fill-opacity="0.8"/>
<rect width="6" height="1" transform="translate(25 978.5)" fill="#0F172A" fill-opacity="0.8"/>
<rect width="8" height="1" transform="translate(23 998.5)" fill="#0F172A" fill-opacity="0.8"/>
<rect width="12" height="2" transform="translate(19 1018)" fill="#0F172A" fill-opacity="0.8"/>
<path d="M17.7558 1012.89C17.7558 1013.63 17.6311 1014.18 17.3818 1014.54C17.1324 1014.91 16.7698 1015.09 16.2938 1015.09C15.8178 1015.09 15.4551 1014.91 15.2058 1014.54C14.9564 1014.18 14.8318 1013.63 14.8318 1012.89C14.8318 1012.15 14.9587 1011.6 15.2126 1011.24C15.4664 1010.88 15.8268 1010.7 16.2938 1010.7C16.7698 1010.7 17.1324 1010.88 17.3818 1011.24C17.6311 1011.6 17.7558 1012.15 17.7558 1012.89ZM17.001 1012.89C17.001 1012.4 16.9398 1012.04 16.8174 1011.79C16.6995 1011.54 16.525 1011.41 16.2938 1011.41C16.0671 1011.41 15.8926 1011.54 15.7702 1011.79C15.6478 1012.04 15.5866 1012.4 15.5866 1012.89C15.5866 1013.37 15.6478 1013.74 15.7702 1013.99C15.8926 1014.24 16.0671 1014.37 16.2938 1014.37C16.525 1014.37 16.6995 1014.24 16.8174 1013.99C16.9398 1013.74 17.001 1013.37 17.001 1012.89ZM16.6746 1012.82C16.6746 1012.94 16.6383 1013.05 16.5658 1013.14C16.4978 1013.22 16.4094 1013.27 16.3006 1013.27C16.1827 1013.27 16.0898 1013.22 16.0218 1013.14C15.9538 1013.05 15.9198 1012.94 15.9198 1012.82C15.9198 1012.69 15.9538 1012.59 16.0218 1012.5C16.0898 1012.41 16.1827 1012.36 16.3006 1012.36C16.4094 1012.36 16.4978 1012.41 16.5658 1012.5C16.6383 1012.59 16.6746 1012.69 16.6746 1012.82Z" fill="#0F172A" fill-opacity="0.7"/>
</g>
</g>
<defs>
<filter id="filter0_dd_64_439" x="0" y="-9" width="45" height="1060" filterUnits="userSpaceOnUse" color-interpolation-filters="sRGB">
<feFlood flood-opacity="0" result="BackgroundImageFix"/>
<feColorMatrix in="SourceAlpha" type="matrix" values="0 0 0 0 0 0 0 0 0 0 0 0 0 0 0 0 0 0 127 0" result="hardAlpha"/>
<feMorphology radius="3" operator="erode" in="SourceAlpha" result="effect1_dropShadow_64_439"/>
<feOffset dy="10"/>
<feGaussianBlur stdDeviation="7.5"/>
<feColorMatrix type="matrix" values="0 0 0 0 0 0 0 0 0 0 0 0 0 0 0 0 0 0 0.1 0"/>
<feBlend mode="normal" in2="BackgroundImageFix" result="effect1_dropShadow_64_439"/>
<feColorMatrix in="SourceAlpha" type="matrix" values="0 0 0 0 0 0 0 0 0 0 0 0 0 0 0 0 0 0 127 0" result="hardAlpha"/>
<feMorphology radius="4" operator="erode" in="SourceAlpha" result="effect2_dropShadow_64_439"/>
<feOffset dy="4"/>
<feGaussianBlur stdDeviation="3"/>
<feColorMatrix type="matrix" values="0 0 0 0 0 0 0 0 0 0 0 0 0 0 0 0 0 0 0.1 0"/>
<feBlend mode="normal" in2="effect1_dropShadow_64_439" result="effect2_dropShadow_64_439"/>
<feBlend mode="normal" in="SourceGraphic" in2="effect2_dropShadow_64_439" result="shape"/>
</filter>
<clipPath id="clip0_64_439">
<path d="M12 -7H33V1029H12V-7Z" fill="white"/>
</clipPath>
</defs>
</svg>
